<svg id="Layer_1" data-name="Layer 1" xmlns="http://www.w3.org/2000/svg" viewBox="0 0 50 53.79"><defs><style>.cls-1{fill:#333;}</style></defs><path class="cls-1" d="M52.7,23.49c-1.53-.42-3.36-.42-4.5.82a.06.06,0,0,0,0,.11c2-.1,3.94-.22,4.19,2.33.17,1.79-1.65,3-3.09,3.52-3.52,1.33-6.85-2-8-5.05-.06-.15-.11-.3-.16-.45a5.6,5.6,0,0,0,6.2-3.25c1.18-2.95,0-7.54-.05-10.17,0-1.88.87-3.42,2.93-3.51,2.41-.09,2.66,2.15,1.59,3.77a.28.28,0,0,0,.24.42c2.36-.23,3.17-3.49,2.15-5.35-1.61-2.95-5.41-3.12-8-1.38-3.19,2.15-3.1,7.21-2.87,10.58.07,1.14.69,3.8-1.06,3.92-1.39.1-1.85-.95-2.4-2-.42-3.56-1.37-7.68-2.47-9.76C36,5.35,33.32,3,30.14,3.11c-3.18-.1-5.88,2.24-7.32,5-1.09,2.08-2,6.2-2.47,9.76-.54,1-1,2.07-2.39,2-1.76-.12-1.14-2.78-1.06-3.92.22-3.37.32-8.43-2.87-10.58C11.45,3.56,7.65,3.73,6,6.68,5,8.54,5.82,11.8,8.18,12a.28.28,0,0,0,.25-.42C7.36,10,7.6,7.75,10,7.84c2.06.09,3,1.63,2.93,3.51,0,2.63-1.23,7.22,0,10.17a5.53,5.53,0,0,0,5.86,3.29l0,.09c-1.24,3-4.66,6.26-8.15,4.83-1.42-.58-3.21-1.81-3-3.6.32-2.54,2.24-2.37,4.25-2.21a.06.06,0,0,0,.05-.11c-1.1-1.27-2.93-1.32-4.48-.94S5.06,25.62,5,27.1c-.14,3.89,4,6.87,7.6,7a6.24,6.24,0,0,0-2.68,4.29A6.74,6.74,0,0,0,13.7,46c2.22.88,11.34.8,9.36,5.58-.06.14.08.28.2.19,2.84-1.87,1.74-5.31-.59-7.08-1.6-1.22-3.8-1.45-5.67-2-1.27-.35-4.71-2.59-2.32-4.24,1.59-1.09,3.87-.16,5.66-.89A10.29,10.29,0,0,0,22,36.75a16.14,16.14,0,0,0,3.36,8.57,20.18,20.18,0,0,1,2.94,4.56c.69,1.76-.57,6.45-3.26,5.64a.13.13,0,0,0-.14.19c1.47,1.82,3.23,1.42,4.91-.4,2.66-2.89,2.66-6.81,1.08-10.11-1.93-4-4.58-6.52-3.85-12.08a12.5,12.5,0,0,1,3.51-7.21,14.67,14.67,0,0,1,2.47-1.82c-1.43,2.8.11,7.46,2,9.88a12,12,0,0,0,4.86,3.63c1.8.73,4.07-.2,5.67.89,2.38,1.65-1.06,3.89-2.33,4.24-1.87.53-4.06.76-5.67,2-2.32,1.77-3.42,5.21-.59,7.08.13.09.26,0,.2-.19-2-4.78,7.15-4.7,9.36-5.58a6.75,6.75,0,0,0,3.79-7.64,6.61,6.61,0,0,0-2.13-3.89C51.6,34,55,31.32,55,27.79,55,26.3,54.4,24,52.7,23.49Zm-19-10.19a1.17,1.17,0,1,1-1.18,1.17A1.17,1.17,0,0,1,33.67,13.3ZM26.9,15.64a1.17,1.17,0,1,1,1.17-1.17A1.17,1.17,0,0,1,26.9,15.64ZM18.56,32a12.42,12.42,0,0,0,1.65-1.51A6.8,6.8,0,0,1,18.56,32Z" transform="translate(-5 -3.11)"/></svg>