<?xml version="1.0" encoding="utf-8"?>
<!-- Generator: Adobe Illustrator 26.0.2, SVG Export Plug-In . SVG Version: 6.00 Build 0)  -->
<svg version="1.1" id="Layer_1" xmlns="http://www.w3.org/2000/svg" xmlns:xlink="http://www.w3.org/1999/xlink" x="0px" y="0px"
	 viewBox="0 0 50 50" style="enable-background:new 0 0 50 50;" xml:space="preserve">
<style type="text/css">
	.st0{fill:#333333;}
</style>
<g>
	<path class="st0" d="M3,31.09c1.9,1.44,4.27,2.14,6.63,2.13c1.7-0.01,3.39-0.4,4.91-1.15c-0.53,1.06-1.05,2.34-1.4,3.7
		c-0.29,0.21-1.53,1.1-2.63,2.28c-1.13,1.22-2.43,2.42-4.9,2.61c-1.74,0.13-3.11-0.91-3.12-0.92c-0.19-0.15-0.46-0.15-0.65,0
		c-0.19,0.15-0.26,0.41-0.16,0.63c0.05,0.12,1.35,2.97,4.32,3.12c0.27,0.01,0.52,0.02,0.78,0.02c3.17-0.02,5.2-1.19,6.18-1.93
		c0.01,0.05,0.03,0.11,0.04,0.16c0.63,2.16,1.83,3.82,3.45,4.8c1,0.6,2.13,0.89,3.27,0.88c1.43-0.01,2.88-0.5,4.12-1.44
		c0.45-0.34,0.92-0.85,1.32-1.47c0.39,0.58,0.86,1.09,1.35,1.45c1.25,0.92,2.71,1.39,4.14,1.38c1.14-0.01,2.26-0.32,3.25-0.94
		c1.61-1,2.78-2.68,3.37-4.85c0.02-0.05,0.03-0.11,0.04-0.16c0.99,0.73,3.05,1.86,6.21,1.83c0.25,0,0.51-0.01,0.78-0.03
		c2.97-0.19,4.22-3.07,4.27-3.19c0.1-0.22,0.03-0.48-0.17-0.63c-0.19-0.15-0.46-0.14-0.65,0.01c-0.02,0.01-1.36,1.07-3.1,0.97
		c-2.47-0.15-3.79-1.33-4.94-2.53c-1.12-1.17-2.37-2.04-2.67-2.24c-0.38-1.35-0.92-2.62-1.46-3.67c1.54,0.73,3.24,1.09,4.93,1.08
		c2.37-0.02,4.72-0.76,6.6-2.23c4.29-3.35,2.92-8.39,1.63-10.17c-1.17-1.62-3.06-3.09-5.31-3.18c-0.14-0.75-0.69-2.49-2.88-4.64
		c-0.55-0.54-1.06-0.99-1.55-1.43c-1.22-1.09-2.19-1.95-2.75-3.29c-0.47-1.13-0.03-1.77,0.43-2.1c0.66-0.49,1.67-0.56,2.15-0.15
		c1.02,0.86,1.02,1.84,1.02,1.88c-0.01,0.17,0.07,0.33,0.2,0.43c0.13,0.11,0.3,0.14,0.47,0.1c0.32-0.08,0.57-0.32,0.72-0.67
		c0.33-0.82,0.05-2.2-0.42-2.97c-0.41-0.68-1.34-1.57-2.59-1.86c-1.14-0.26-2.34,0-3.55,0.78c-2.85,1.84-2.97,5.15-0.33,9.33
		l0.02,0.04c2.15,3.41,2.6,4.16,2.33,5.08c-0.08,0.27-0.3,0.44-0.6,0.46c-0.5,0.03-1.21-0.4-1.73-1.67
		c-1.06-2.63-4.48-6.52-9.54-6.48c-5.33,0.04-8.41,4.36-9.28,6.63c-0.49,1.28-1.21,1.71-1.7,1.7c-0.29-0.01-0.52-0.18-0.6-0.45
		c-0.28-0.92,0.15-1.68,2.25-5.12l0.02-0.04c2.57-4.22,2.4-7.53-0.48-9.32c-1.22-0.76-2.42-1-3.56-0.73
		C10.2,3.2,9.29,4.11,8.88,4.79C8.43,5.57,8.17,6.95,8.51,7.77c0.15,0.35,0.4,0.58,0.73,0.66c0.16,0.04,0.33,0,0.46-0.11
		c0.13-0.1,0.2-0.27,0.2-0.43c0-0.04-0.02-1.02,0.99-1.9c0.47-0.41,1.48-0.36,2.15,0.12c0.46,0.33,0.92,0.96,0.46,2.1
		c-0.54,1.35-1.49,2.23-2.7,3.33c-0.49,0.45-0.99,0.91-1.53,1.46c-2.16,2.19-2.68,3.94-2.8,4.69c-2.24,0.13-4.11,1.63-5.26,3.27
		C-0.05,22.75-1.34,27.8,3,31.09z M6.05,42.42c-0.9-0.04-1.61-0.43-2.14-0.88c0.53,0.14,1.13,0.22,1.78,0.17
		c2.85-0.22,4.38-1.64,5.6-2.95c0.51-0.55,1.06-1.04,1.52-1.41c-0.15,1.01-0.2,2.03-0.08,3.03C12.19,40.86,9.99,42.62,6.05,42.42z
		 M23.91,36.36c-0.96-0.82-2.22-1.14-3.05-1.26c0.51-0.77,1.13-1.65,1.91-2.73c1.1-1.51,1.8-3.03,2.25-4.27
		c0.46,1.21,1.19,2.74,2.31,4.23c0.8,1.06,1.43,1.93,1.95,2.7c-0.82,0.13-2.08,0.47-3.03,1.31c-0.48,0.43-0.86,0.84-1.17,1.27
		C24.77,37.17,24.37,36.75,23.91,36.36z M38.93,38.55c1.24,1.29,2.79,2.69,5.64,2.86c0.66,0.04,1.26-0.05,1.79-0.2
		c-0.53,0.46-1.24,0.86-2.14,0.92c-3.93,0.26-6.17-1.46-6.71-1.94c0.1-1,0.04-2.02-0.13-3.03C37.85,37.52,38.41,38,38.93,38.55z
		 M2.08,21.56c1.26-1.81,3.54-3.44,6.13-2.58c1,0.33,1.59,0.96,1.77,1.88c-0.6-0.58-1.46-1.02-2.59-0.89
		c-0.16,0.02-0.31,0.05-0.46,0.09c-0.02,0-0.04,0.01-0.05,0.02c-0.78,0.22-1.45,0.73-1.93,1.47c-0.74,1.14-0.94,2.74-0.52,4.07
		c0.43,1.36,1.31,2.32,2.54,2.79c1.53,0.58,3.5,0.33,5.13-0.66c2.33-1.4,2.48-3.84,2.48-3.95c0.01-0.25-0.16-0.48-0.4-0.54
		c-0.24-0.06-0.5,0.05-0.61,0.28c-0.04,0.09-1.1,2.19-3.61,1.37c-1.95-0.64-2.31-2.93-2.38-3.88c1.67-0.14,2.31,1.57,2.34,1.65
		c0.08,0.22,0.27,0.36,0.51,0.36c0.23,0,0.43-0.16,0.5-0.38c0.01-0.04,0.27-0.89,0.11-1.88c-0.15-0.95-0.71-2.2-2.5-2.8
		c-0.34-0.11-0.68-0.19-1.01-0.24c0.14-0.63,0.64-2.11,2.49-3.99c0.52-0.53,1.01-0.98,1.49-1.42c1.25-1.15,2.34-2.14,2.97-3.72
		c0.54-1.35,0.23-2.6-0.83-3.36c-1.07-0.76-2.63-0.79-3.47-0.06C9.95,5.4,9.75,5.61,9.59,5.82C9.64,5.65,9.71,5.48,9.8,5.34
		c0.24-0.41,0.91-1.16,1.9-1.4c0.85-0.21,1.78-0.01,2.75,0.59c2.96,1.84,1.7,5.29,0.13,7.87l-0.02,0.04
		c-2.15,3.52-2.79,4.58-2.36,5.98c0.22,0.7,0.84,1.17,1.58,1.2c1.12,0.03,2.14-0.85,2.73-2.38c0.79-2.04,3.54-5.91,8.3-5.95
		c4.53-0.04,7.59,3.46,8.54,5.82c0.6,1.48,1.6,2.34,2.68,2.33c0.03,0,0.06,0,0.09,0c0.75-0.04,1.36-0.52,1.57-1.22
		c0.41-1.41-0.25-2.47-2.45-5.95l-0.03-0.04c-1.61-2.55-2.92-5.98,0.01-7.87c0.96-0.62,1.88-0.83,2.74-0.64
		c0.99,0.23,1.68,0.97,1.92,1.37c0.09,0.15,0.16,0.31,0.22,0.48c-0.17-0.21-0.37-0.42-0.61-0.62c-0.85-0.72-2.41-0.67-3.47,0.11
		c-1.05,0.78-1.35,2.04-0.78,3.38c0.66,1.56,1.75,2.54,3.03,3.67c0.49,0.43,0.99,0.88,1.51,1.4c1.88,1.85,2.41,3.32,2.55,3.95
		c-0.33,0.05-0.67,0.14-1.01,0.25c-1.78,0.62-2.31,1.88-2.45,2.84c-0.14,0.99,0.13,1.84,0.14,1.88c0.07,0.22,0.27,0.37,0.5,0.37
		c0,0,0.01,0,0.01,0c0.23,0,0.43-0.15,0.5-0.36c0-0.01,0.17-0.48,0.55-0.92c0.48-0.55,1.07-0.81,1.77-0.76
		c-0.05,0.95-0.37,3.25-2.32,3.92c-2.47,0.85-3.59-1.23-3.63-1.31c-0.11-0.23-0.37-0.34-0.62-0.27c-0.24,0.07-0.41,0.3-0.39,0.55
		c0.01,0.1,0.19,2.54,2.55,3.91c1.65,0.96,3.62,1.18,5.14,0.58c1.22-0.48,2.09-1.46,2.5-2.83c0.4-1.34,0.17-2.93-0.58-4.06
		c-0.49-0.73-1.17-1.23-1.95-1.44c-0.02-0.01-0.04-0.01-0.06-0.01c-0.15-0.04-0.3-0.06-0.46-0.08c-1.14-0.11-2,0.35-2.59,0.94
		c0.13-0.71,0.56-1.5,1.74-1.91c2.58-0.9,4.88,0.69,6.17,2.48c1.1,1.52,2.26,5.83-1.42,8.71c-2.95,2.31-8.27,2.94-12.08,0.02
		c-0.05-0.06-0.09-0.12-0.14-0.18c-1.56-2.01-3.84-6.46-3.86-6.5c-0.13-0.26-0.45-0.37-0.72-0.23c-0.26,0.13-0.37,0.45-0.23,0.72
		c0.09,0.19,2.34,4.58,3.97,6.67c1.74,2.24,3.86,7.24,2.86,10.87c-0.53,1.91-1.53,3.37-2.91,4.23c-1.87,1.16-4.3,1.01-6.19-0.39
		c-0.52-0.38-1.03-1-1.4-1.68c0.3-0.69,0.49-1.46,0.52-2.25c0.03-0.88-0.16-1.73-0.54-2.53c0.3-0.52,0.7-0.99,1.27-1.49
		c0.96-0.85,2.4-1.06,2.96-1.12c0.56,0.93,0.93,1.73,1.17,2.62c-0.62,0.03-1.53,0.2-2.48,0.8c-0.64,0.41-1.09,1.42-1.02,2.3
		c0.07,0.82,0.55,1.45,1.36,1.78c0.31,0.13,0.61,0.19,0.91,0.19c0.48,0,0.94-0.17,1.34-0.51c0.99-0.83,1.44-2.47,1.1-4.1
		c0-0.01,0-0.02-0.01-0.02c-0.5-2.38-1.58-3.99-4.12-7.38c-1.55-2.07-2.3-4.19-2.63-5.36c0.14-0.57,0.19-0.92,0.19-0.97
		c0.04-0.29-0.17-0.56-0.46-0.6c-0.29-0.04-0.56,0.16-0.6,0.45c0,0.03-0.48,3.33-2.79,6.52c-2.48,3.42-3.54,5.06-4,7.44
		c0,0.01,0,0.02-0.01,0.02c-0.31,1.63,0.16,3.27,1.17,4.08c0.41,0.33,0.87,0.49,1.35,0.49c0.3,0,0.6-0.07,0.91-0.2
		c0.8-0.34,1.27-0.98,1.32-1.8c0.06-0.88-0.4-1.88-1.05-2.28c-0.96-0.59-1.88-0.74-2.49-0.76c0.23-0.89,0.59-1.7,1.13-2.63
		c0.56,0.04,2,0.23,2.98,1.07c0.62,0.53,1.09,1.1,1.42,1.71c0,0,0,0,0,0c0.38,0.71,0.56,1.46,0.54,2.25
		c-0.02,0.73-0.21,1.42-0.5,2.04c-0.02,0.03-0.03,0.06-0.05,0.1c-0.39,0.81-0.94,1.46-1.46,1.86c-1.87,1.43-4.3,1.62-6.19,0.49
		c-1.39-0.83-2.42-2.28-2.98-4.18c-1.06-3.61,0.98-8.64,2.68-10.91c1.59-2.11,3.77-6.55,3.86-6.73c0.13-0.26,0.02-0.58-0.24-0.71
		c-0.26-0.13-0.58-0.02-0.71,0.24c-0.02,0.05-2.23,4.53-3.76,6.56c-0.04,0.06-0.09,0.12-0.13,0.18c-3.76,2.98-9.09,2.44-12.08,0.18
		C-0.09,27.42,1.01,23.1,2.08,21.56z M9.63,25.91c1.26,0.41,2.29,0.25,3.09-0.14c-0.28,0.37-0.66,0.74-1.17,1.05
		c-1.34,0.81-2.99,1.03-4.21,0.57c-0.93-0.35-1.57-1.06-1.9-2.11c-0.33-1.04-0.17-2.28,0.4-3.17c0.16-0.24,0.39-0.52,0.71-0.74
		c0.04,0.39,0.12,0.88,0.27,1.41C7.3,24.38,8.28,25.47,9.63,25.91z M43.14,22.5c0.15-0.52,0.22-1.02,0.25-1.41
		c0.32,0.21,0.56,0.48,0.72,0.72c0.59,0.88,0.76,2.12,0.45,3.16c-0.32,1.06-0.95,1.78-1.87,2.14c-1.2,0.48-2.86,0.28-4.22-0.51
		c-0.52-0.3-0.9-0.66-1.19-1.03c0.81,0.38,1.84,0.52,3.09,0.09C41.73,25.2,42.68,24.1,43.14,22.5z M31.3,39.7c0.01,0,0.02,0,0.03,0
		c0.14,1.21-0.27,2.25-0.8,2.69c-0.34,0.28-0.73,0.34-1.16,0.16c-0.43-0.18-0.66-0.47-0.7-0.89c-0.05-0.57,0.28-1.15,0.52-1.31
		C30.05,39.8,30.84,39.7,31.3,39.7z M18.9,39.8c0.45-0.01,1.27,0.07,2.15,0.61c0.25,0.15,0.58,0.73,0.54,1.3
		c-0.03,0.42-0.25,0.72-0.69,0.9c-0.43,0.19-0.82,0.14-1.16-0.14C19.21,42.04,18.78,41.01,18.9,39.8z"/>
	<path class="st0" d="M20.85,20.99c1.08-0.01,1.95-0.9,1.95-1.98c-0.01-1.08-0.9-1.95-1.98-1.95c-1.08,0.01-1.96,0.9-1.95,1.98
		C18.88,20.13,19.76,21,20.85,20.99z M20.82,18.13c0.49,0,0.9,0.39,0.9,0.89c0,0.5-0.4,0.9-0.89,0.9c-0.49,0-0.9-0.39-0.9-0.89
		C19.93,18.54,20.33,18.14,20.82,18.13z"/>
	<path class="st0" d="M29.09,20.93c1.08-0.01,1.95-0.9,1.95-1.98c-0.01-1.08-0.89-1.95-1.98-1.95c-1.08,0.01-1.95,0.9-1.94,1.98
		C27.12,20.06,28.01,20.93,29.09,20.93z M29.07,18.07c0.5,0,0.9,0.39,0.91,0.89c0,0.49-0.4,0.9-0.89,0.9c-0.49,0-0.9-0.39-0.9-0.89
		C28.17,18.48,28.57,18.07,29.07,18.07z"/>
</g>
</svg>
